<svg width="14" height="14" viewBox="0 0 14 14" fill="none" xmlns="http://www.w3.org/2000/svg">
<path d="M6.99992 13.6668C10.6819 13.6668 13.6666 10.6822 13.6666 7.00016C13.6666 6.6915 13.2039 6.64016 13.0446 6.90483C12.7047 7.46772 12.2413 7.9459 11.6893 8.30314C11.1372 8.66038 10.5112 8.88732 9.85847 8.96676C9.20577 9.04621 8.54354 8.97608 7.92195 8.76168C7.30036 8.54728 6.73571 8.19425 6.27077 7.72931C5.80583 7.26437 5.4528 6.69972 5.2384 6.07813C5.024 5.45654 4.95387 4.79431 5.03332 4.14161C5.11276 3.4889 5.3397 2.86283 5.69694 2.31082C6.05418 1.75881 6.53236 1.29533 7.09525 0.955496C7.35992 0.795496 7.30858 0.333496 6.99992 0.333496C3.31792 0.333496 0.333252 3.31816 0.333252 7.00016C0.333252 10.6822 3.31792 13.6668 6.99992 13.6668Z" fill="#7E7E7E"/>
</svg>
